<svg width="295" height="121" viewBox="0 0 295 121" fill="none" xmlns="http://www.w3.org/2000/svg">
<mask id="path-1-inside-1_89_10411" fill="white">
<path d="M48.784 38.688V49.952H36.752V84H22.544V49.952H10.64V38.688H48.784Z"/>
</mask>
<path d="M48.784 38.688V49.952H36.752V84H22.544V49.952H10.64V38.688H48.784Z" fill="#79004F"/>
<path d="M48.784 38.688H49.784V37.688H48.784V38.688ZM48.784 49.952V50.952H49.784V49.952H48.784ZM36.752 49.952V48.952H35.752V49.952H36.752ZM36.752 84V85H37.752V84H36.752ZM22.544 84H21.544V85H22.544V84ZM22.544 49.952H23.544V48.952H22.544V49.952ZM10.64 49.952H9.64V50.952H10.64V49.952ZM10.64 38.688V37.688H9.64V38.688H10.64ZM47.784 38.688V49.952H49.784V38.688H47.784ZM48.784 48.952H36.752V50.952H48.784V48.952ZM35.752 49.952V84H37.752V49.952H35.752ZM36.752 83H22.544V85H36.752V83ZM23.544 84V49.952H21.544V84H23.544ZM22.544 48.952H10.64V50.952H22.544V48.952ZM11.64 49.952V38.688H9.64V49.952H11.64ZM10.64 39.688H48.784V37.688H10.64V39.688Z" fill="#79004F" mask="url(#path-1-inside-1_89_10411)"/>
<path fill-rule="evenodd" clip-rule="evenodd" d="M84.3315 51.0639C84.0755 50.2959 83.9475 49.5066 83.9475 48.6959C83.9475 45.7519 85.5688 43.2986 88.8115 41.3359C89.861 40.6953 90.9563 40.157 92.0973 39.721V44.2268C91.6134 44.8559 91.3715 45.7269 91.3715 46.8399V70.314C90.9465 71.9446 90.3368 73.4349 89.5471 74.7893C87.8527 77.6526 85.5442 79.7986 82.607 81.247C82.5249 81.2875 82.4425 81.3275 82.3598 81.3668C82.0529 80.6207 81.8995 79.7357 81.8995 78.7119C81.8995 76.9626 82.0701 75.6399 82.4115 74.7439C82.1555 74.2746 81.8355 73.9119 81.4515 73.6559C81.0675 73.3999 80.6195 73.2719 80.1075 73.2719C77.9741 73.2719 76.9075 74.9146 76.9075 78.1999C76.9075 79.996 77.3275 81.5401 78.1676 82.8321C76.4214 83.2418 74.5722 83.4479 72.6173 83.4479C68.9147 83.4479 65.663 82.7085 62.8375 81.2561C60.077 79.8153 57.9144 77.6775 56.3417 74.8145C54.7772 71.9661 53.9693 68.4504 53.9693 64.2239V39.6879H66.1133V64.2239C66.1133 66.4491 66.5896 68.3417 67.6473 69.8024L67.6588 69.8183L67.671 69.8337C68.8601 71.3472 70.6968 72.0079 72.9373 72.0079C75.1806 72.0079 77.0254 71.3464 78.254 69.8506L78.2594 69.844L78.2648 69.8373C79.4259 68.3733 79.9533 66.4669 79.9533 64.2239V50.4615C80.0558 50.6068 80.1712 50.7437 80.2994 50.8719C80.9395 51.5119 81.7075 51.8319 82.6035 51.8319C83.4995 51.8319 84.0755 51.5759 84.3315 51.0639ZM78.8282 83.6998C76.8756 84.1985 74.8053 84.4479 72.6173 84.4479C68.7773 84.4479 65.3639 83.6799 62.3773 82.1439C59.4333 80.6079 57.1293 78.3252 55.4653 75.2959C53.8013 72.2666 52.9693 68.5759 52.9693 64.2239V39.6879V38.6879H53.9693H66.1133H67.1133V39.6879V64.2239C67.1133 66.3146 67.5613 67.9786 68.4573 69.2159C69.3959 70.4106 70.8893 71.0079 72.9373 71.0079C74.9853 71.0079 76.4999 70.4106 77.4813 69.2159C78.4626 67.9786 78.9533 66.3146 78.9533 64.2239V39.6879V38.6879H79.9533H86.1459C87.3371 37.9653 88.631 37.3546 90.0275 36.8559C93.0568 35.7466 96.1075 35.1919 99.1795 35.1919C113.515 35.1919 120.683 40.3332 120.683 50.6159C120.683 53.3039 119.873 55.7146 118.251 57.8479C116.63 59.9386 114.731 61.4746 112.555 62.4559C110.422 63.4372 108.331 63.9279 106.283 63.9279C108.673 63.9279 110.785 64.4612 112.619 65.5279C114.497 66.5946 116.011 67.9812 117.163 69.6879C118.358 71.3946 119.446 73.2932 120.427 75.3839C121.451 77.4319 122.454 79.5012 123.435 81.5919C124.417 83.6826 125.483 85.5812 126.635 87.2879C127.787 88.9946 129.259 90.3812 131.051 91.4479C132.886 92.5146 134.977 93.0479 137.323 93.0479C138.39 93.0479 139.265 92.8346 139.947 92.4079C140.587 92.4506 140.907 92.8132 140.907 93.4959C140.907 94.9466 139.414 95.6719 136.427 95.6719C133.441 95.6719 130.774 95.1172 128.427 94.0079C126.081 92.8986 124.182 91.4479 122.731 89.6559C121.281 87.8639 119.958 85.8799 118.763 83.7039C117.611 81.5706 116.523 79.4372 115.499 77.3039C114.475 75.1706 113.387 73.2079 112.235 71.4159C111.126 69.6239 109.697 68.1732 107.947 67.0639C106.198 65.9546 104.193 65.3999 101.931 65.3999C100.822 65.3999 100.267 64.8026 100.267 63.6079C100.267 63.0959 100.438 62.7119 100.779 62.4559C101.121 62.1999 101.505 62.0719 101.931 62.0719C105.899 62.0719 109.035 60.9199 111.339 58.6159C113.643 56.2692 114.795 53.6026 114.795 50.6159C114.795 46.4346 113.387 43.3412 110.571 41.3359C107.755 39.3306 104.235 38.3279 100.011 38.3279C97.5517 38.3279 95.247 38.6749 93.0973 39.3689V39.6879V43.3407C93.5594 43.0708 94.0721 42.9359 94.6355 42.9359C95.5315 42.9359 96.4061 43.2346 97.2595 43.8319V72.0559C97.2595 76.5359 96.4061 80.0986 94.6995 82.7439C93.0354 85.3892 90.4968 86.7119 87.0835 86.7119C83.7128 86.7119 81.1741 85.9226 79.4675 84.3439C79.2391 84.1384 79.026 83.9237 78.8282 83.6998ZM82.8371 82.247C82.9604 82.4237 83.0959 82.5893 83.2435 82.7439C84.1821 83.6399 85.3554 84.0879 86.7635 84.0879C89.8355 84.0879 91.3715 81.3572 91.3715 75.8959V73.3912C91.0861 74.0505 90.7654 74.6854 90.4093 75.2959C88.6173 78.3252 86.1639 80.6079 83.0493 82.1439C82.9787 82.1787 82.908 82.2131 82.8371 82.247ZM84.6583 39.6879H79.9533V45.1968C80.469 43.9354 81.3097 42.7338 82.4755 41.5919C83.1519 40.9014 83.8795 40.2667 84.6583 39.6879Z" fill="#79004F"/>
<path d="M150.239 68.6C151.135 68.6 151.583 69.2827 151.583 70.648C151.583 73.8053 150.474 76.6853 148.255 79.288C146.079 81.8907 142.751 83.192 138.271 83.192C133.791 83.192 130.186 81.9973 127.455 79.608C124.767 77.176 123.423 73.6347 123.423 68.984C123.423 64.2907 124.618 60.6427 127.007 58.04C129.396 55.3947 132.447 54.072 136.159 54.072C138.847 54.072 140.81 54.7973 142.047 56.248C143.284 57.656 143.903 59.3413 143.903 61.304C143.903 64.504 142.559 67.1707 139.871 69.304C137.226 71.3947 133.834 72.44 129.695 72.44C130.079 75.1707 131.06 77.24 132.639 78.648C134.26 80.0133 136.372 80.696 138.975 80.696C141.62 80.696 143.988 79.7147 146.079 77.752C148.212 75.7467 149.279 72.824 149.279 68.984C149.322 68.728 149.642 68.6 150.239 68.6ZM129.503 69.496V70.072C132.148 69.7307 134.431 68.8987 136.351 67.576C138.314 66.2533 139.295 64.2907 139.295 61.688C139.295 60.024 138.932 58.7653 138.207 57.912C137.482 57.016 136.458 56.568 135.135 56.568C133.13 56.568 131.679 57.5493 130.783 59.512C129.93 61.4747 129.503 64.8027 129.503 69.496ZM176.238 69.88C177.134 69.88 177.582 70.4987 177.582 71.736C177.582 72.9733 177.326 74.2107 176.814 75.448C176.302 76.6853 175.555 77.9013 174.574 79.096C173.635 80.2907 172.291 81.272 170.542 82.04C168.835 82.808 166.894 83.192 164.718 83.192C159.939 83.192 156.184 81.9973 153.454 79.608C150.766 77.176 149.422 73.6347 149.422 68.984C149.422 64.2907 150.616 60.6427 153.006 58.04C155.395 55.3947 158.446 54.072 162.158 54.072C164.846 54.072 166.808 54.7973 168.046 56.248C169.283 57.656 169.902 59.3413 169.902 61.304C169.902 62.3707 169.582 63.224 168.942 63.864C168.302 64.504 167.683 64.824 167.086 64.824C165.976 64.824 165.251 64.568 164.91 64.056C165.166 63.416 165.294 62.4987 165.294 61.304C165.294 60.1093 164.888 59.0213 164.078 58.04C163.267 57.0587 162.286 56.568 161.134 56.568C159.128 56.568 157.678 57.5493 156.782 59.512C155.928 61.4747 155.502 64.568 155.502 68.792C155.502 72.9733 156.312 76.0027 157.934 77.88C159.598 79.7573 161.902 80.696 164.846 80.696C167.79 80.696 170.264 79.8 172.27 78.008C174.275 76.1733 175.278 73.592 175.278 70.264C175.32 70.008 175.64 69.88 176.238 69.88ZM202.239 68.6C203.135 68.6 203.583 69.2827 203.583 70.648C203.583 73.8053 202.474 76.6853 200.255 79.288C198.079 81.8907 194.751 83.192 190.271 83.192C185.791 83.192 182.186 81.9973 179.455 79.608C176.767 77.176 175.423 73.6347 175.423 68.984C175.423 64.2907 176.618 60.6427 179.007 58.04C181.396 55.3947 184.447 54.072 188.159 54.072C190.847 54.072 192.81 54.7973 194.047 56.248C195.284 57.656 195.903 59.3413 195.903 61.304C195.903 64.504 194.559 67.1707 191.871 69.304C189.226 71.3947 185.834 72.44 181.695 72.44C182.079 75.1707 183.06 77.24 184.639 78.648C186.26 80.0133 188.372 80.696 190.975 80.696C193.62 80.696 195.988 79.7147 198.079 77.752C200.212 75.7467 201.279 72.824 201.279 68.984C201.322 68.728 201.642 68.6 202.239 68.6ZM181.503 69.496V70.072C184.148 69.7307 186.431 68.8987 188.351 67.576C190.314 66.2533 191.295 64.2907 191.295 61.688C191.295 60.024 190.932 58.7653 190.207 57.912C189.482 57.016 188.458 56.568 187.135 56.568C185.13 56.568 183.679 57.5493 182.783 59.512C181.93 61.4747 181.503 64.8027 181.503 69.496ZM201.422 48.504C201.422 47.224 201.742 46.264 202.382 45.624C203.022 44.9413 203.832 44.6 204.814 44.6C205.795 44.6 206.584 44.8987 207.182 45.496V54.968H215.95C216.846 54.968 217.422 55.1387 217.678 55.48C217.976 55.8213 218.126 56.3973 218.126 57.208H207.182V73.336C207.182 75.6827 207.843 77.496 209.166 78.776C210.531 80.056 212.088 80.696 213.838 80.696C216.483 80.696 218.424 79.7147 219.662 77.752C220.899 75.7893 221.518 72.6107 221.518 68.216C221.603 67.96 221.923 67.832 222.478 67.832C223.246 67.832 223.63 68.9627 223.63 71.224C223.63 74.68 222.755 77.5387 221.006 79.8C219.299 82.0613 216.654 83.192 213.07 83.192C209.486 83.192 206.648 82.2533 204.558 80.376C202.467 78.4987 201.422 75.704 201.422 71.992V48.504ZM240.68 55.928C241.234 54.6907 242.109 54.072 243.304 54.072C244.541 54.072 245.458 54.3707 246.056 54.968V73.336C246.056 75.768 246.44 77.6027 247.208 78.84C247.976 80.0773 249.021 80.696 250.344 80.696C254.354 80.696 256.36 76.536 256.36 68.216C256.402 67.96 256.722 67.832 257.32 67.832C258.088 67.832 258.472 68.9627 258.472 71.224C258.472 74.8507 257.682 77.752 256.104 79.928C254.568 82.104 252.392 83.192 249.576 83.192C245.266 83.192 242.408 81.2933 241 77.496C240.189 79.2453 239.08 80.632 237.672 81.656C236.264 82.68 234.664 83.192 232.872 83.192C225.405 83.192 221.672 78.3067 221.672 68.536C221.672 63.5867 222.824 59.9387 225.128 57.592C227.474 55.2453 230.568 54.072 234.408 54.072C237.352 54.072 239.442 54.6907 240.68 55.928ZM228.648 76.408C229.245 78.2853 229.928 79.48 230.696 79.992C231.464 80.4613 232.488 80.696 233.768 80.696C235.048 80.696 236.434 79.9067 237.928 78.328C239.464 76.7067 240.232 74.616 240.232 72.056V63.288C240.232 61.2827 239.698 59.6613 238.632 58.424C237.608 57.1867 236.434 56.568 235.112 56.568C233.832 56.568 232.808 56.696 232.04 56.952C231.272 57.208 230.546 57.7413 229.864 58.552C228.456 60.088 227.752 63.416 227.752 68.536C227.752 71.9067 228.05 74.5307 228.648 76.408ZM268.324 70.136C266.617 69.5387 264.911 68.92 263.204 68.28C261.54 67.5973 260.132 66.6373 258.98 65.4C257.828 64.1627 257.252 62.584 257.252 60.664C257.252 58.7013 258.148 57.1227 259.94 55.928C261.732 54.6907 264.335 54.072 267.748 54.072C271.204 54.072 273.892 54.6693 275.812 55.864C277.775 57.0587 278.756 58.4453 278.756 60.024C278.756 60.792 278.457 61.4107 277.86 61.88C277.305 62.3493 276.751 62.584 276.196 62.584C275.129 62.584 274.425 62.328 274.084 61.816C274.34 61.5173 274.468 60.9413 274.468 60.088C274.468 59.192 273.807 58.3813 272.484 57.656C271.161 56.9307 269.689 56.568 268.068 56.568C266.447 56.568 265.103 56.8667 264.036 57.464C262.969 58.0613 262.436 58.9787 262.436 60.216C262.436 61.4107 263.033 62.456 264.228 63.352C265.465 64.248 266.937 64.9947 268.644 65.592C270.393 66.1893 272.121 66.8293 273.828 67.512C275.577 68.1947 277.049 69.176 278.244 70.456C279.481 71.6933 280.1 73.2293 280.1 75.064C280.1 77.7947 278.905 79.8427 276.516 81.208C274.169 82.5307 271.055 83.192 267.172 83.192C263.332 83.192 260.196 82.0827 257.764 79.864C255.375 77.6027 254.18 74.808 254.18 71.48C254.18 70.2853 254.415 69.3467 254.884 68.664C255.353 67.9813 255.887 67.64 256.484 67.64C257.593 67.64 258.233 67.832 258.404 68.216L258.532 68.408C258.276 69.048 258.148 69.8373 258.148 70.776C258.148 73.6347 258.98 76.0027 260.644 77.88C262.308 79.7573 264.612 80.696 267.556 80.696C272.079 80.696 274.361 79.096 274.404 75.896C274.404 73.464 272.377 71.544 268.324 70.136Z" fill="#F06077"/>
</svg>
