<svg width="52" height="52" viewBox="0 0 52 52" fill="none" xmlns="http://www.w3.org/2000/svg">
<path d="M36.7254 27.2289C36.7804 33.176 41.9431 35.1554 42 35.1807C41.9563 35.3199 41.1753 38.0011 39.2804 40.77C37.6425 43.1641 35.9421 45.5493 33.2643 45.5992C30.633 45.6473 29.7868 44.0384 26.7782 44.0384C23.7704 44.0384 22.8306 45.5493 20.3394 45.6473C17.7543 45.7454 15.7857 43.0581 14.1341 40.6732C10.7595 35.794 8.18035 26.8857 11.6433 20.8724C13.3635 17.8862 16.4383 15.9954 19.7754 15.9467C22.3137 15.8983 24.7096 17.6543 26.2613 17.6543C27.8119 17.6543 30.7235 15.5424 33.7844 15.8524C35.0659 15.9059 38.6626 16.37 40.9722 19.751C40.7865 19.8664 36.6808 22.2567 36.7254 27.2289ZM31.7801 12.6248C33.1524 10.9638 34.0761 8.6507 33.8243 6.34998C31.8459 6.42938 29.4537 7.66815 28.035 9.32861C26.7633 10.7986 25.6498 13.1522 25.95 15.4074C28.1552 15.5782 30.4075 14.2869 31.7801 12.6248Z" fill="black"/>
</svg>
