<svg width="52" height="52" viewBox="0 0 52 52" fill="none" xmlns="http://www.w3.org/2000/svg">
<g clip-path="url(#clip0_86_10035)">
<path d="M35.7775 29.5567C34.7694 29.5575 33.7766 29.8036 32.8848 30.2738C31.9931 30.7439 31.2291 31.424 30.6588 32.2554L21.9802 28.3367C22.5966 26.8482 22.599 25.1763 21.9868 23.686L30.6535 19.7474C31.4987 20.9697 32.7539 21.8486 34.1916 22.2248C35.6293 22.6009 37.1542 22.4492 38.4897 21.7974C39.8251 21.1455 40.8827 20.0366 41.4706 18.6717C42.0585 17.3069 42.1378 15.7765 41.694 14.3583C41.2502 12.94 40.3128 11.7278 39.0518 10.9414C37.7908 10.1551 36.2898 9.84679 34.8209 10.0724C33.3521 10.298 32.0127 11.0426 31.0458 12.1711C30.0789 13.2996 29.5485 14.7373 29.5508 16.2234C29.5565 16.5751 29.5922 16.9257 29.6575 17.2714L20.4442 21.458C19.5593 20.629 18.4515 20.0765 17.2569 19.8684C16.0624 19.6603 14.833 19.8057 13.7199 20.2866C12.6068 20.7676 11.6585 21.5633 10.9914 22.5758C10.3243 23.5884 9.96746 24.7738 9.9648 25.9864C9.96213 27.1989 10.3137 28.3859 10.9764 29.4014C11.639 30.4168 12.5839 31.2167 13.6948 31.7025C14.8058 32.1884 16.0345 32.3392 17.23 32.1363C18.4255 31.9335 19.5357 31.3858 20.4242 30.5607L29.6615 34.7314C29.5973 35.0767 29.5621 35.4268 29.5562 35.778C29.5559 37.0089 29.9207 38.2121 30.6043 39.2357C31.288 40.2592 32.2598 41.057 33.3969 41.5281C34.534 41.9992 35.7853 42.1226 36.9925 41.8825C38.1997 41.6425 39.3086 41.0498 40.1789 40.1795C41.0493 39.3091 41.6419 38.2002 41.882 36.993C42.1221 35.7858 41.9987 34.5345 41.5276 33.3974C41.0564 32.2603 40.2587 31.2885 39.2351 30.6048C38.2116 29.9212 37.0084 29.5564 35.7775 29.5567V29.5567ZM35.7775 12.6674C36.4809 12.6671 37.1685 12.8754 37.7535 13.266C38.3384 13.6566 38.7944 14.2119 39.0638 14.8616C39.3331 15.5114 39.4037 16.2264 39.2667 16.9163C39.1296 17.6062 38.791 18.2399 38.2938 18.7374C37.7965 19.2348 37.1629 19.5736 36.4731 19.7109C35.7832 19.8483 35.0682 19.7779 34.4183 19.5088C33.7685 19.2397 33.213 18.7839 32.8222 18.1991C32.4314 17.6143 32.2228 16.9267 32.2228 16.2234C32.2235 15.2807 32.5982 14.3768 33.2647 13.7101C33.9311 13.0435 34.8348 12.6684 35.7775 12.6674V12.6674ZM16.2228 29.5567C15.5195 29.557 14.8318 29.3486 14.2469 28.9581C13.6619 28.5675 13.2059 28.0122 12.9366 27.3624C12.6672 26.7127 12.5966 25.9977 12.7337 25.3078C12.8707 24.6179 13.2093 23.9841 13.7066 23.4867C14.2038 22.9892 14.8374 22.6504 15.5273 22.5131C16.2171 22.3758 16.9322 22.4461 17.582 22.7153C18.2319 22.9844 18.7873 23.4401 19.1781 24.0249C19.5689 24.6098 19.7775 25.2973 19.7775 26.0007C19.7765 26.9433 19.4016 27.8469 18.7353 28.5135C18.0689 29.1801 17.1654 29.5553 16.2228 29.5567ZM35.7775 39.334C35.0742 39.334 34.3867 39.1255 33.8019 38.7347C33.2171 38.344 32.7613 37.7886 32.4922 37.1389C32.223 36.4891 32.1526 35.7741 32.2898 35.0843C32.427 34.3945 32.7657 33.7609 33.263 33.2636C33.7604 32.7662 34.394 32.4276 35.0838 32.2904C35.7736 32.1531 36.4886 32.2236 37.1383 32.4927C37.7881 32.7619 38.3435 33.2176 38.7342 33.8024C39.125 34.3872 39.3335 35.0747 39.3335 35.778C39.3328 36.7209 38.9579 37.625 38.2912 38.2917C37.6245 38.9584 36.7204 39.3333 35.7775 39.334V39.334Z" fill="black"/>
</g>
<defs>
<clipPath id="clip0_86_10035">
<rect width="32" height="32" fill="white" transform="translate(10 10)"/>
</clipPath>
</defs>
</svg>
