<svg width="52" height="52" viewBox="0 0 52 52" fill="none" xmlns="http://www.w3.org/2000/svg">
<path d="M42 26C42 17.1635 34.8365 10 26 10C17.1635 10 10 17.1635 10 26C10 33.986 15.851 40.6054 23.5 41.8056V30.625H19.4375V26H23.5V22.475C23.5 18.465 25.8888 16.25 29.5435 16.25C31.294 16.25 33.125 16.5625 33.125 16.5625V20.5H31.1075C29.1199 20.5 28.5 21.7334 28.5 22.9988V26H32.9375L32.2281 30.625H28.5V41.8056C36.149 40.6054 42 33.9861 42 26Z" fill="#1877F2"/>
<path d="M32.2281 30.625L32.9375 26H28.5V22.9988C28.5 21.7334 29.1199 20.5 31.1075 20.5H33.125V16.5625C33.125 16.5625 31.294 16.25 29.5435 16.25C25.8888 16.25 23.5 18.465 23.5 22.475V26H19.4375V30.625H23.5V41.8056C24.327 41.9352 25.1629 42.0002 26 42C26.8371 42.0003 27.673 41.9353 28.5 41.8056V30.625H32.2281Z" fill="#F7F0E3"/>
</svg>
