<svg width="52" height="52" viewBox="0 0 52 52" fill="none" xmlns="http://www.w3.org/2000/svg">
<path fill-rule="evenodd" clip-rule="evenodd" d="M24.811 37.0105C25.5537 37.4409 26.4463 37.4409 27.189 37.0105C30.1625 35.2871 37.7765 30.4019 39.078 24.8906C40.2532 19.914 37.2706 14.7432 32.2199 14.6689C32.1156 14.6674 32.0098 14.6666 31.9025 14.6666C29.8692 14.6666 28.0541 15.6822 26.9899 16.433C26.4085 16.8432 25.5915 16.8432 25.0102 16.433C23.946 15.6822 22.1308 14.6666 20.0976 14.6666C19.9902 14.6666 19.8844 14.6674 19.7802 14.6689C14.7295 14.7432 11.7468 19.914 12.9221 24.8906C14.2235 30.4019 21.8375 35.2871 24.811 37.0105ZM37.1315 24.4309C36.631 26.5504 34.8122 28.8005 32.4461 30.8636C30.1445 32.8704 27.6198 34.4492 26.1862 35.2801C26.0637 35.351 25.9363 35.351 25.8139 35.2801C24.3802 34.4492 21.8555 32.8704 19.5539 30.8636C17.1879 28.8005 15.369 26.5504 14.8685 24.4309C13.8925 20.2981 16.4186 16.7186 19.8096 16.6687C19.9039 16.6673 19.9999 16.6666 20.0976 16.6666C21.5125 16.6666 22.9106 17.3994 23.8571 18.0672C25.1298 18.9651 26.8702 18.9651 28.1429 18.0672C29.0894 17.3994 30.4875 16.6666 31.9025 16.6666C32.0001 16.6666 32.0961 16.6673 32.1905 16.6687C35.5814 16.7186 38.1075 20.2981 37.1315 24.4309Z" fill="black"/>
</svg>
