<svg width="52" height="52" viewBox="0 0 52 52" fill="none" xmlns="http://www.w3.org/2000/svg">
<path fill-rule="evenodd" clip-rule="evenodd" d="M36 16C36 21.5228 31.5228 26 26 26C20.4772 26 16 21.5228 16 16C16 10.4772 20.4772 6 26 6C31.5228 6 36 10.4772 36 16ZM33 16C33 19.866 29.866 23 26 23C22.134 23 19 19.866 19 16C19 12.134 22.134 9 26 9C29.866 9 33 12.134 33 16Z" fill="black"/>
<path fill-rule="evenodd" clip-rule="evenodd" d="M42 37C42 41.9706 34.8366 46 26 46C17.1634 46 10 41.9706 10 37C10 32.0294 17.1634 28 26 28C34.8366 28 42 32.0294 42 37ZM39 37C39 37.9201 38.3053 39.3641 35.8429 40.7492C33.4745 42.0815 30.0006 43 26 43C21.9994 43 18.5255 42.0815 16.1571 40.7492C13.6947 39.3641 13 37.9201 13 37C13 36.0799 13.6947 34.6359 16.1571 33.2508C18.5255 31.9185 21.9994 31 26 31C30.0006 31 33.4745 31.9185 35.8429 33.2508C38.3053 34.6359 39 36.0799 39 37Z" fill="black"/>
</svg>
