<svg width="52" height="52" viewBox="0 0 52 52" fill="none" xmlns="http://www.w3.org/2000/svg">
<path d="M29.3097 36.2413C29.9951 36.2413 30.5508 35.6856 30.5508 35.0002C30.5508 34.3147 29.9951 33.7591 29.3097 33.7591H22.6904C22.0049 33.7591 21.4493 34.3147 21.4493 35.0002C21.4493 35.6856 22.0049 36.2413 22.6904 36.2413H29.3097Z" fill="black"/>
<path fill-rule="evenodd" clip-rule="evenodd" d="M12.4844 19.3354L21.865 11.831C24.2824 9.89699 27.7176 9.89699 30.1351 11.831L39.5156 19.3354C41.3881 20.8334 42.304 23.2271 41.9098 25.5924L40.1605 36.0884C39.6285 39.2801 36.867 41.6195 33.6312 41.6195H18.3688C15.133 41.6195 12.3715 39.2801 11.8395 36.0884L10.0902 25.5924C9.69598 23.2271 10.6119 20.8334 12.4844 19.3354ZM14.0351 21.2737L23.4156 13.7693C24.9265 12.5605 27.0735 12.5605 28.5844 13.7693L37.9649 21.2737C39.1353 22.21 39.7077 23.706 39.4613 25.1844L37.712 35.6803C37.3795 37.6751 35.6536 39.1372 33.6312 39.1372H18.3688C16.3464 39.1372 14.6205 37.6751 14.288 35.6803L12.5387 25.1844C12.2923 23.706 12.8647 22.21 14.0351 21.2737Z" fill="black"/>
</svg>
