<svg width="52" height="52" viewBox="0 0 52 52" fill="none" xmlns="http://www.w3.org/2000/svg">
<path d="M41.6888 22.8664H40.4V22.8H26V29.2H35.0424C33.7232 32.9256 30.1784 35.6 26 35.6C20.6984 35.6 16.4 31.3016 16.4 26C16.4 20.6984 20.6984 16.4 26 16.4C28.4472 16.4 30.6736 17.3232 32.3688 18.8312L36.8944 14.3056C34.0368 11.6424 30.2144 10 26 10C17.164 10 10 17.164 10 26C10 34.836 17.164 42 26 42C34.836 42 42 34.836 42 26C42 24.9272 41.8896 23.88 41.6888 22.8664Z" fill="#FFC107"/>
<path d="M11.8448 18.5528L17.1016 22.408C18.524 18.8864 21.9688 16.4 26 16.4C28.4472 16.4 30.6736 17.3232 32.3688 18.8312L36.8944 14.3056C34.0368 11.6424 30.2144 10 26 10C19.8544 10 14.5248 13.4696 11.8448 18.5528Z" fill="#FF3D00"/>
<path d="M26 42C30.1328 42 33.888 40.4184 36.7272 37.8464L31.7752 33.656C30.1148 34.9187 28.086 35.6017 26 35.6C21.8384 35.6 18.3048 32.9464 16.9736 29.2432L11.756 33.2632C14.404 38.4448 19.7816 42 26 42Z" fill="#4CAF50"/>
<path d="M41.6888 22.8664H40.4V22.8H26V29.2H35.0424C34.4114 30.9731 33.2747 32.5225 31.7728 33.6568L31.7752 33.656L36.7272 37.8464C36.3768 38.1648 42 34 42 26C42 24.9272 41.8896 23.88 41.6888 22.8664Z" fill="#1976D2"/>
</svg>
