<svg width="52" height="52" viewBox="0 0 52 52" fill="none" xmlns="http://www.w3.org/2000/svg">
<path d="M27 20.6666C27 20.1143 26.5523 19.6666 26 19.6666C25.4477 19.6666 25 20.1143 25 20.6666V25H20.6667C20.1144 25 19.6667 25.4477 19.6667 26C19.6667 26.5522 20.1144 27 20.6667 27H25V31.3333C25 31.8856 25.4477 32.3333 26 32.3333C26.5523 32.3333 27 31.8856 27 31.3333V27H31.3333C31.8856 27 32.3333 26.5522 32.3333 26C32.3333 25.4477 31.8856 25 31.3333 25H27V20.6666Z" fill="black"/>
<path fill-rule="evenodd" clip-rule="evenodd" d="M39.3333 26C39.3333 33.3638 33.3638 39.3333 26 39.3333C18.6362 39.3333 12.6667 33.3638 12.6667 26C12.6667 18.6362 18.6362 12.6666 26 12.6666C33.3638 12.6666 39.3333 18.6362 39.3333 26ZM37.3333 26C37.3333 32.2592 32.2592 37.3333 26 37.3333C19.7408 37.3333 14.6667 32.2592 14.6667 26C14.6667 19.7407 19.7408 14.6666 26 14.6666C32.2592 14.6666 37.3333 19.7407 37.3333 26Z" fill="black"/>
</svg>
