<svg width="52" height="52" viewBox="0 0 52 52" fill="none" xmlns="http://www.w3.org/2000/svg">
<path fill-rule="evenodd" clip-rule="evenodd" d="M31.1271 33.1551C29.3341 34.5218 27.0952 35.3333 24.6667 35.3333C18.7756 35.3333 14 30.5577 14 24.6667C14 18.7756 18.7756 14 24.6667 14C30.5577 14 35.3333 18.7756 35.3333 24.6667C35.3333 27.4284 34.2838 29.9449 32.5618 31.8393C32.5972 31.8634 32.6315 31.89 32.6644 31.9193L38.6644 37.2526C39.0771 37.6195 39.1143 38.2516 38.7474 38.6644C38.3805 39.0771 37.7484 39.1143 37.3356 38.7474L31.3356 33.4141C31.2498 33.3378 31.1802 33.25 31.1271 33.1551ZM33.3333 24.6667C33.3333 29.4531 29.4531 33.3333 24.6667 33.3333C19.8802 33.3333 16 29.4531 16 24.6667C16 19.8802 19.8802 16 24.6667 16C29.4531 16 33.3333 19.8802 33.3333 24.6667Z" fill="black"/>
</svg>
